<?xml version="1.0" encoding="utf-8"?>
<!-- Generator: Adobe Illustrator 21.0.0, SVG Export Plug-In . SVG Version: 6.00 Build 0)  -->
<svg version="1.1" id="Layer_1" xmlns="http://www.w3.org/2000/svg" xmlns:xlink="http://www.w3.org/1999/xlink" x="0px" y="0px"
	 viewBox="0 0 128 128" style="enable-background:new 0 0 128 128;" xml:space="preserve">
<style type="text/css">
	.st0{fill:#40300E;}
	.st1{fill:#C8533F;}
</style>
<g>
	<path class="st0" d="M67.4,100.2L81,113.8l-11.1,11.1c-3.2,3.2-8.4,3.2-11.5,0L3.1,69.6c-3.2-3.2-3.2-8.4,0-11.5l17.8-17.8l5.8-5.8
		l8-8l6.3-6.3l14.4,14.4c-0.9,2.2-1,4.6-0.3,6.8L40.9,55.5c-1-0.3-2-0.5-3.1-0.5c-5.4,0-9.8,4.4-9.8,9.7s4.4,9.7,9.8,9.7
		s9.7-4.4,9.7-9.7c0-1.3-0.3-2.6-0.8-3.7l13.8-13.8l0,0c0,0,0,0,0.1,0v34.8c-1.2,0.5-2.2,1.2-3.2,2.1c-3.8,3.8-3.8,9.9,0,13.7
		C60.1,100.6,64,101.4,67.4,100.2z"/>
	<path class="st1" d="M125,58.4L125,58.4L87.2,20.6l-5.7-5.7l0,0L69.6,3.1c-3.2-3.2-8.4-3.2-11.5,0L46.6,14.5l14.6,14.6
		c2-0.7,4.2-0.7,6.2,0l0,0c1.4,0.5,2.7,1.2,3.8,2.3c0.9,0.9,1.6,2,2.1,3.1c0.9,2.2,1,4.7,0.2,6.9l14,14c3.4-1.2,7.3-0.4,10,2.3
		c3.8,3.8,3.8,9.9,0,13.7c-3.8,3.8-9.9,3.8-13.7,0c-2.8-2.9-3.6-7-2.1-10.6L68.6,47.9l0,34.5c0.9,0.5,1.8,1.1,2.6,1.8
		c2.9,2.9,3.6,7.1,2.1,10.6l13.4,13.4L125,69.9C128.1,66.7,128.1,61.5,125,58.4z"/>
</g>
</svg>
