<?xml version="1.0" encoding="utf-8"?>
<!-- Generator: Adobe Illustrator 21.0.0, SVG Export Plug-In . SVG Version: 6.00 Build 0)  -->
<svg version="1.1" id="Layer_1" xmlns="http://www.w3.org/2000/svg" xmlns:xlink="http://www.w3.org/1999/xlink" x="0px" y="0px"
	 viewBox="0 0 256 256" style="enable-background:new 0 0 256 256;" xml:space="preserve">
<style type="text/css">
	.st0{fill:#40300E;}
	.st1{fill:#C8533F;}
</style>
<g>
	<path class="st0" d="M134.8,200.5l27.2,27.2l-22.2,22.2c-6.4,6.4-16.7,6.4-23.1,0L6.1,139.3c-6.4-6.4-6.4-16.7,0-23.1l35.7-35.7
		l11.6-11.6l16-16l12.6-12.6l28.7,28.7c-1.8,4.3-2,9.2-0.5,13.6l-28.4,28.4c-2-0.6-4-1-6.2-1c-10.8,0-19.5,8.7-19.5,19.5
		S64.8,149,75.6,149S95,140.3,95,129.5c0-2.7-0.5-5.2-1.5-7.5L121,94.5l0,0c0.1,0,0.1,0,0.2,0.1v69.6c-2.3,1-4.5,2.4-6.4,4.2
		c-7.6,7.6-7.6,19.9,0,27.5C120.3,201.2,128,202.8,134.8,200.5z"/>
	<path class="st1" d="M249.9,116.7L249.9,116.7l-75.6-75.6L163,29.8l0,0L139.3,6.1c-6.4-6.4-16.7-6.4-23.1,0l-23,23l29.1,29.2
		c4-1.4,8.3-1.4,12.3-0.1l0,0c2.8,0.9,5.4,2.5,7.6,4.7c1.8,1.8,3.2,4,4.2,6.2c1.9,4.4,2,9.3,0.4,13.8L175,111
		c6.8-2.3,14.6-0.8,20.1,4.6c7.6,7.6,7.6,19.9,0,27.5c-7.6,7.6-19.9,7.6-27.5,0c-5.7-5.7-7.1-14.1-4.2-21.1l-26.2-26.2l0,68.9
		c1.9,0.9,3.6,2.1,5.1,3.7c5.7,5.7,7.1,14.2,4.2,21.2l26.8,26.8l76.6-76.6C256.3,133.4,256.3,123.1,249.9,116.7z"/>
</g>
</svg>
