<?xml version="1.0" encoding="utf-8"?>
<!-- Generator: Adobe Illustrator 21.0.0, SVG Export Plug-In . SVG Version: 6.00 Build 0)  -->
<svg version="1.1" id="Layer_1" xmlns="http://www.w3.org/2000/svg" xmlns:xlink="http://www.w3.org/1999/xlink" x="0px" y="0px"
	 viewBox="0 0 32 32" style="enable-background:new 0 0 32 32;" xml:space="preserve">
<style type="text/css">
	.st0{fill:#40300E;}
	.st1{fill:#C8533F;}
</style>
<g>
	<path class="st0" d="M16.9,25.1l3.4,3.4l-2.8,2.8c-0.8,0.8-2.1,0.8-2.9,0L0.8,17.4c-0.8-0.8-0.8-2.1,0-2.9l4.5-4.5l1.5-1.5l2-2
		L10.2,5l3.6,3.6c-0.2,0.5-0.2,1.1-0.1,1.7l-3.5,3.5c-0.2-0.1-0.5-0.1-0.8-0.1c-1.3,0-2.4,1.1-2.4,2.4s1.1,2.4,2.4,2.4
		s2.4-1.1,2.4-2.4c0-0.3-0.1-0.7-0.2-0.9l3.4-3.4l0,0c0,0,0,0,0,0v8.7c-0.3,0.1-0.6,0.3-0.8,0.5c-0.9,0.9-0.9,2.5,0,3.4
		C15,25.2,16,25.3,16.9,25.1z"/>
	<path class="st1" d="M31.2,14.6L31.2,14.6l-9.4-9.4l-1.4-1.4l0,0l-3-3c-0.8-0.8-2.1-0.8-2.9,0l-2.9,2.9l3.6,3.6
		c0.5-0.2,1-0.2,1.5,0l0,0c0.3,0.1,0.7,0.3,1,0.6c0.2,0.2,0.4,0.5,0.5,0.8c0.2,0.6,0.3,1.2,0.1,1.7l3.5,3.5c0.9-0.3,1.8-0.1,2.5,0.6
		c0.9,0.9,0.9,2.5,0,3.4c-0.9,0.9-2.5,0.9-3.4,0c-0.7-0.7-0.9-1.8-0.5-2.6L17.1,12l0,8.6c0.2,0.1,0.5,0.3,0.6,0.5
		c0.7,0.7,0.9,1.8,0.5,2.7l3.3,3.4l9.6-9.6C32,16.7,32,15.4,31.2,14.6z"/>
</g>
</svg>
