<?xml version="1.0" encoding="utf-8"?>
<!-- Generator: Adobe Illustrator 21.0.0, SVG Export Plug-In . SVG Version: 6.00 Build 0)  -->
<svg version="1.1" id="Layer_1" xmlns="http://www.w3.org/2000/svg" xmlns:xlink="http://www.w3.org/1999/xlink" x="0px" y="0px"
	 viewBox="0 0 512 512" style="enable-background:new 0 0 512 512;" xml:space="preserve">
<style type="text/css">
	.st0{fill:#40300E;}
	.st1{fill:#C8533F;}
</style>
<g>
	<path class="st0" d="M269.6,401l54.5,54.5L279.6,500c-12.7,12.7-33.4,12.7-46.2,0L12.1,278.6c-12.8-12.7-12.8-33.4,0-46.2L83.5,161
		l23.2-23.2l32-32l25.1-25.1l57.5,57.5c-3.6,8.6-4,18.3-1,27.2l-56.8,56.8c-3.9-1.3-8.1-2-12.5-2c-21.5,0-39,17.4-39,39
		s17.5,39,39,39s39-17.4,39-39c0-5.3-1.1-10.4-3-15l55.1-55.2l0,0c0.1,0,0.2,0.1,0.3,0.1v139.2c-4.6,1.9-9,4.8-12.7,8.5
		c-15.2,15.2-15.2,39.7,0,55C240.5,402.5,256.1,405.6,269.6,401z"/>
	<path class="st1" d="M500,233.5L500,233.5L348.7,82.2l-22.6-22.7l0,0L278.6,12c-12.7-12.7-33.4-12.7-46.2,0l-46,46l58.3,58.3
		c8-2.7,16.7-2.8,24.6-0.1l0,0c5.6,1.8,10.8,4.9,15.2,9.4c3.7,3.7,6.5,7.9,8.3,12.5c3.7,8.8,4,18.7,0.9,27.7L350,222
		c13.6-4.7,29.3-1.6,40.1,9.2c15.2,15.2,15.2,39.8,0,55c-15.2,15.2-39.7,15.2-55,0c-11.4-11.4-14.2-28.2-8.5-42.3l-52.4-52.4
		l0,137.9c3.7,1.8,7.2,4.3,10.3,7.3c11.5,11.5,14.3,28.3,8.4,42.5l53.6,53.7L500,279.7C512.7,266.9,512.7,246.2,500,233.5z"/>
</g>
</svg>
