<?xml version="1.0" encoding="utf-8"?>
<!-- Generator: Adobe Illustrator 21.0.0, SVG Export Plug-In . SVG Version: 6.00 Build 0)  -->
<svg version="1.1" id="Layer_1" xmlns="http://www.w3.org/2000/svg" xmlns:xlink="http://www.w3.org/1999/xlink" x="0px" y="0px"
	 viewBox="0 0 64 64" style="enable-background:new 0 0 64 64;" xml:space="preserve">
<style type="text/css">
	.st0{fill:#40300E;}
	.st1{fill:#C8533F;}
</style>
<g>
	<path class="st0" d="M33.7,50l6.8,6.8l-5.5,5.5c-1.6,1.6-4.2,1.6-5.7,0L1.7,34.8c-1.6-1.6-1.6-4.2,0-5.7l8.9-8.9l2.9-2.9l4-4
		l3.1-3.1l7.1,7.1c-0.5,1.1-0.5,2.3-0.1,3.4l-7.1,7.1c-0.5-0.2-1-0.3-1.5-0.3c-2.7,0-4.8,2.2-4.8,4.8s2.2,4.8,4.8,4.8
		s4.8-2.2,4.8-4.8c0-0.7-0.1-1.3-0.4-1.9l6.8-6.9l0,0c0,0,0,0,0,0V41c-0.6,0.2-1.1,0.6-1.6,1.1c-1.9,1.9-1.9,4.9,0,6.8
		C30.1,50.2,32,50.6,33.7,50z"/>
	<path class="st1" d="M62.3,29.2L62.3,29.2L43.5,10.4l-2.8-2.8l0,0l-5.9-5.9c-1.6-1.6-4.2-1.6-5.7,0l-5.7,5.7l7.2,7.3
		c1-0.3,2.1-0.3,3.1,0l0,0c0.7,0.2,1.3,0.6,1.9,1.2c0.5,0.5,0.8,1,1,1.5c0.5,1.1,0.5,2.3,0.1,3.4l7,7c1.7-0.6,3.6-0.2,5,1.1
		c1.9,1.9,1.9,4.9,0,6.8c-1.9,1.9-4.9,1.9-6.8,0c-1.4-1.4-1.8-3.5-1.1-5.3L34.3,24l0,17.1c0.5,0.2,0.9,0.5,1.3,0.9
		c1.4,1.4,1.8,3.5,1,5.3l6.7,6.7l19.1-19C63.9,33.4,63.9,30.8,62.3,29.2z"/>
</g>
</svg>
