<?xml version="1.0" encoding="UTF-8" standalone="no"?>
<svg
   xmlns:dc="http://purl.org/dc/elements/1.1/"
   xmlns:cc="http://creativecommons.org/ns#"
   xmlns:rdf="http://www.w3.org/1999/02/22-rdf-syntax-ns#"
   xmlns:svg="http://www.w3.org/2000/svg"
   xmlns="http://www.w3.org/2000/svg"
   xmlns:sodipodi="http://sodipodi.sourceforge.net/DTD/sodipodi-0.dtd"
   xmlns:inkscape="http://www.inkscape.org/namespaces/inkscape"
   id="svg10"
   version="1.1"
   preserveAspectRatio="xMidYMid meet"
   viewBox="0 0 1437.4229 253.8699"
   height="253.8699pt"
   width="1437.423pt"
   sodipodi:docname="logo.svg"
   inkscape:version="0.92.5 (2060ec1f9f, 2020-04-08)">
  <sodipodi:namedview
     pagecolor="#ffffff"
     bordercolor="#666666"
     borderopacity="1"
     objecttolerance="10"
     gridtolerance="10"
     guidetolerance="10"
     inkscape:pageopacity="0"
     inkscape:pageshadow="2"
     inkscape:window-width="1920"
     inkscape:window-height="1043"
     id="namedview18"
     showgrid="false"
     inkscape:zoom="0.347"
     inkscape:cx="834.28934"
     inkscape:cy="78.37094"
     inkscape:window-x="1920"
     inkscape:window-y="0"
     inkscape:window-maximized="1"
     inkscape:current-layer="g4786" />
  <defs
     id="defs14" />
  <metadata
     id="metadata2">
Created by potrace 1.15, written by Peter Selinger 2001-2017
<rdf:RDF>
  <cc:Work
     rdf:about="">
    <dc:format>image/svg+xml</dc:format>
    <dc:type
       rdf:resource="http://purl.org/dc/dcmitype/StillImage" />
    <dc:title />
  </cc:Work>
</rdf:RDF>
</metadata>
  <g
     id="g4804"
     transform="translate(-1.0395829,-1.1102204)">
    <g
       transform="matrix(0.1,0,0,-0.1,0,256)"
       id="g8"
       style="fill:#000000;stroke:none">
      <path
         d="m 1205,2536 c -16,-8 -86,-71 -155,-140 l -125,-126 148,-148 148,-149 53,5 c 116,9 201,-77 194,-199 l -3,-59 134,-134 135,-135 h 60 c 34,1 73,-3 87,-9 147,-58 157,-273 17,-341 -141,-68 -303,55 -268,204 l 9,40 -134,135 -135,135 V 1262 909 l 36,-31 c 54,-48 67,-81 62,-159 l -5,-67 133,-133 134,-134 396,395 c 222,221 402,409 410,427 20,45 17,107 -5,151 -24,46 -1134,1154 -1178,1176 -39,19 -107,20 -148,2 z"
         id="path4"
         style="fill:#f1502f"
         inkscape:connector-curvature="0" />
      <path
         d="M 423,1768 C 207,1552 26,1362 20,1347 5,1306 8,1244 26,1207 48,1163 1156,53 1202,29 c 41,-21 101,-25 145,-9 15,6 85,68 156,138 l 127,127 -137,138 -138,137 -42,-6 c -53,-8 -105,9 -150,49 -86,75 -85,199 1,275 20,17 41,32 46,32 6,0 10,134 10,355 0,195 -3,355 -8,355 -4,0 -69,-62 -145,-138 l -138,-138 9,-40 c 14,-64 -4,-120 -53,-169 -117,-117 -315,-37 -315,128 0,112 85,192 196,185 l 54,-3 141,141 140,141 3,74 2,74 -140,143 c -78,78 -143,142 -146,142 -3,0 -181,-177 -397,-392 z"
         id="path6"
         style="fill:#3e2c00"
         inkscape:connector-curvature="0" />
    </g>
    <g
       id="g4786">
      <g
         id="g4801"
         style="fill:#3e2c00;fill-opacity:1">
        <path
           d="m 433.26495,150.94518 -8.2,0.8 q -3.2,0.2 -3.2,2.8 v 43 q -20.2,9.6 -51.8,9.6 -20,0 -34.6,-5.6 -14.4,-5.6 -22.8,-16 -8.2,-10.4 -12.2,-23.6 -3.8,-13.2 -3.8,-30 0,-33.400002 19.2,-54.000002 19.2,-20.6 55.8,-20.6 11.6,0 24,3 12.6,3 21.2,8.6 v 37.800002 l -22.2,-1.6 -3,-18.000002 q -0.8,-3.4 -3.2,-4 -9.2,-2.6 -18.4,-2.6 -19.2,0 -30.2,13.8 -11,13.600002 -11,37.200002 0,25.2 10.6,39 10.8,13.6 32,13.6 8.6,0 16.6,-1.4 3.2,-0.6 3.2,-3.6 v -26.2 h -22.2 l 2.8,-18 h 61.4 z"
           style="font-style:normal;font-variant:normal;font-weight:bold;font-stretch:normal;font-size:200px;line-height:1.25;font-family:Adelle;-inkscape-font-specification:'Adelle Bold';letter-spacing:0px;word-spacing:0px;fill:#3e2c00;fill-opacity:1;stroke:none;stroke-width:0.75"
           id="path4767"
           inkscape:connector-curvature="0" />
        <path
           d="m 478.26459,53.545178 q 4.8,4.4 4.8,13 0,8.6 -4.8,13.4 -4.8,4.6 -13.4,4.6 -8.6,0 -13.4,-4.6 -4.6,-4.8 -4.6,-13.4 0,-8.6 4.6,-13 4.8,-4.6 13.4,-4.6 8.8,0 13.4,4.6 z m 17.8,151.200002 h -57 v -15.8 l 10.2,-1.4 q 2,-0.2 2.6,-1 0.6,-0.8 0.6,-3 v -58.8 q 0,-3.4 -2.6,-4.2 l -10.8,-3.8 2.2,-16.2 h 41.4 v 83 q 0,2.4 0.4,3.2 0.6,0.6 2.8,0.8 l 10.2,1.4 z"
           style="font-style:normal;font-variant:normal;font-weight:bold;font-stretch:normal;font-size:200px;line-height:1.25;font-family:Adelle;-inkscape-font-specification:'Adelle Bold';letter-spacing:0px;word-spacing:0px;fill:#3e2c00;fill-opacity:1;stroke:none;stroke-width:0.75"
           id="path4769"
           inkscape:connector-curvature="0" />
        <path
           d="m 575.46459,181.54518 5.4,17.6 q -16.4,8 -32.6,8 -17.6,0 -25.2,-7.6 -7.6,-7.6 -7.6,-24.6 v -52.4 q 0,-2 -1.6,-2 h -14 v -17.8 q 13.2,-1.4 19.2,-8.800002 6,-7.4 7.6,-23.8 h 19 v 28.4 q 0,2.000002 1.6,2.000002 h 28.2 v 20 h -29.8 v 47.8 q 0,9.2 2.8,12.8 2.8,3.6 10.8,3.6 7.6,0 16.2,-3.2 z"
           style="font-style:normal;font-variant:normal;font-weight:bold;font-stretch:normal;font-size:200px;line-height:1.25;font-family:Adelle;-inkscape-font-specification:'Adelle Bold';letter-spacing:0px;word-spacing:0px;fill:#3e2c00;fill-opacity:1;stroke:none;stroke-width:0.75"
           id="path4771"
           inkscape:connector-curvature="0" />
      </g>
      <g
         id="g4810"
         style="fill:#3e2c00;fill-opacity:1">
        <path
           d="m 811.26429,204.74518 h -65.8 v -15.6 l 16.4,-1.4 q 2,-0.2 2.6,-1 0.6,-0.8 0.6,-3 v -76 h -0.8 l -28.6,68.2 h -32.6 l -28.2,-68.4 h -1 v 76 q 0,2.4 0.4,3.2 0.6,0.6 2.8,0.8 l 17.2,1.6 v 15.6 h -60.8 v -15.6 l 12.6,-1.4 q 2,-0.2 2.6,-1 0.6,-0.8 0.6,-3 V 81.145178 q 0,-2.2 -0.6,-3 -0.6,-0.8 -2.6,-1 l -12.6,-1.4 v -15.8 h 53.6 l 34.8,90.600002 h 0.8 l 36.6,-90.600002 h 52 v 15.6 l -13.4,1.6 q -2.2,0.2 -2.8,1 -0.4,0.6 -0.4,2.8 V 183.74518 q 0,3.4 3.2,3.8 l 13.4,1.6 z"
           style="font-style:normal;font-variant:normal;font-weight:bold;font-stretch:normal;font-size:200px;line-height:1.25;font-family:Adelle;-inkscape-font-specification:'Adelle Bold';letter-spacing:0px;word-spacing:0px;fill:#3e2c00;fill-opacity:1;stroke:none;stroke-width:0.75"
           id="path4773"
           inkscape:connector-curvature="0" />
        <path
           d="m 927.46431,204.74518 h -36.8 l -2,-10.8 -1,-0.2 q -13.8,13.4 -33.6,13.4 -29.2,0 -29.2,-29.6 0,-14.8 9.2,-22.2 9.2,-7.4 28.2,-8.6 l 23,-1.6 v -11 q 0,-8.2 -2.4,-12 -2.4,-3.8 -11,-3.8 -8,0 -11.4,2.6 -3.2,2.4 -3.2,10.8 l -28.2,-2.4 q 0,-30.800002 43,-30.800002 23.4,0 33,7.800002 9.6,7.8 9.6,28.4 v 48.6 q 0,2.4 0.4,3.2 0.6,0.6 2.8,0.8 l 9.6,1.6 z m -42.2,-26.4 v -16.6 l -13.6,1 q -8.8,0.6 -12.4,3.2 -3.6,2.6 -3.6,8.6 0,11 11.4,11 8.4,0 18.2,-7.2 z"
           style="font-style:normal;font-variant:normal;font-weight:bold;font-stretch:normal;font-size:200px;line-height:1.25;font-family:Adelle;-inkscape-font-specification:'Adelle Bold';letter-spacing:0px;word-spacing:0px;fill:#3e2c00;fill-opacity:1;stroke:none;stroke-width:0.75"
           id="path4775"
           inkscape:connector-curvature="0" />
        <path
           d="m 1016.464,178.74518 7.8,18.6 q -16.2,9.8 -37.99998,9.8 -26,0 -39.2,-14.4 -13.2,-14.6 -13.2,-38.6 0,-27.2 14.8,-41.4 15,-14.200002 40,-14.200002 11,0 20.59998,2.600002 9.8,2.4 15,5.8 v 31.4 l -21.4,-1 -2.4,-13.2 q -0.4,-2.6 -2.39998,-3.2 -4.2,-1.4 -10.2,-1.4 -9.8,0 -16,7.6 -6.2,7.6 -6.2,24 0,33.4 25.8,33.4 11.59998,0 24.99998,-5.8 z"
           style="font-style:normal;font-variant:normal;font-weight:bold;font-stretch:normal;font-size:200px;line-height:1.25;font-family:Adelle;-inkscape-font-specification:'Adelle Bold';letter-spacing:0px;word-spacing:0px;fill:#3e2c00;fill-opacity:1;stroke:none;stroke-width:0.75"
           id="path4777"
           inkscape:connector-curvature="0" />
        <path
           d="m 1151.8635,204.74518 h -43.4 v -65.2 q 0,-17 -10.6,-17 -10.6,0 -20.8,7.4 v 53.6 q 0,2.4 0.4,3.2 0.6,0.6 2.8,0.8 l 9.6,1.4 v 15.8 h -55.2 v -15.8 l 9,-1.4 q 2,-0.2 2.6,-1 0.6,-0.8 0.6,-3 V 77.945178 q 0,-3.4 -2.6,-4.2 l -11,-3.8 2.2,-16.2 h 41.2 v 56.600002 l 1,0.2 q 14.6,-12.000002 32,-12.000002 15.4,0 22.2,8.200002 6.8,8 6.8,24.2 v 52.6 q 0,2.4 0.4,3.2 0.6,0.6 2.8,0.8 l 10,1.4 z"
           style="font-style:normal;font-variant:normal;font-weight:bold;font-stretch:normal;font-size:200px;line-height:1.25;font-family:Adelle;-inkscape-font-specification:'Adelle Bold';letter-spacing:0px;word-spacing:0px;fill:#3e2c00;fill-opacity:1;stroke:none;stroke-width:0.75"
           id="path4779"
           inkscape:connector-curvature="0" />
        <path
           d="m 1245.0632,177.14518 7.4,19.8 q -21,10.2 -41,10.2 -27.4,0 -39.6,-14.8 -12.2,-15 -12.2,-40.4 0,-26 13.8,-39.6 14,-13.800002 35.8,-13.800002 20.8,0 32.4,11.800002 11.6,11.6 11.6,36.6 0,5.4 -0.4,13.4 h -61.2 q 1.6,23.6 23.6,23.6 11.4,0 29.8,-6.8 z m -53.2,-35.8 h 31.8 q -0.2,-21.2 -15,-21.2 -15.2,0 -16.8,21.2 z"
           style="font-style:normal;font-variant:normal;font-weight:bold;font-stretch:normal;font-size:200px;line-height:1.25;font-family:Adelle;-inkscape-font-specification:'Adelle Bold';letter-spacing:0px;word-spacing:0px;fill:#3e2c00;fill-opacity:1;stroke:none;stroke-width:0.75"
           id="path4781"
           inkscape:connector-curvature="0" />
        <path
           d="m 1335.8631,181.54518 5.4,17.6 q -16.4,8 -32.6,8 -17.6,0 -25.2,-7.6 -7.6,-7.6 -7.6,-24.6 v -52.4 q 0,-2 -1.6,-2 h -14 v -17.8 q 13.2,-1.4 19.2,-8.800002 6,-7.4 7.6,-23.8 h 19 v 28.4 q 0,2.000002 1.6,2.000002 h 28.2 v 20 h -29.8 v 47.8 q 0,9.2 2.8,12.8 2.8,3.6 10.8,3.6 7.6,0 16.2,-3.2 z"
           style="font-style:normal;font-variant:normal;font-weight:bold;font-stretch:normal;font-size:200px;line-height:1.25;font-family:Adelle;-inkscape-font-specification:'Adelle Bold';letter-spacing:0px;word-spacing:0px;fill:#3e2c00;fill-opacity:1;stroke:none;stroke-width:0.75"
           id="path4783"
           inkscape:connector-curvature="0" />
        <path
           d="m 1430.2626,177.14518 7.4,19.8 q -21,10.2 -41,10.2 -27.4,0 -39.6,-14.8 -12.2,-15 -12.2,-40.4 0,-26 13.8,-39.6 14,-13.800002 35.8,-13.800002 20.8,0 32.4,11.800002 11.6,11.6 11.6,36.6 0,5.4 -0.4,13.4 h -61.2 q 1.6,23.6 23.6,23.6 11.4,0 29.8,-6.8 z m -53.2,-35.8 h 31.8 q -0.2,-21.2 -15,-21.2 -15.2,0 -16.8,21.2 z"
           style="font-style:normal;font-variant:normal;font-weight:bold;font-stretch:normal;font-size:200px;line-height:1.25;font-family:Adelle;-inkscape-font-specification:'Adelle Bold';letter-spacing:0px;word-spacing:0px;fill:#3e2c00;fill-opacity:1;stroke:none;stroke-width:0.75"
           id="path4785"
           inkscape:connector-curvature="0" />
      </g>
    </g>
  </g>
</svg>
